<mxfile host="app.diagrams.net" modified="2023-04-06T10:56:59.211Z" agent="Mozilla/5.0 (Windows NT 10.0; Win64; x64) AppleWebKit/537.36 (KHTML, like Gecko) Chrome/111.0.0.0 Safari/537.36" version="21.1.4" etag="bJBtGiJJL3VcF7g47myK" type="github">
  <diagram name="Страница 1" id="pVav6Ai41TuSv4QDuotn">
    <mxGraphModel>
      <root>
        <mxCell id="0" />
        <mxCell id="1" parent="0" />
      </root>
    </mxGraphModel>
  </diagram>
</mxfile>
